<svg width="68" height="25" viewBox="0 0 68 25" fill="none" xmlns="http://www.w3.org/2000/svg">
<path d="M36.038 17.692C36.674 17.692 37.24 17.58 37.736 17.356C38.232 17.132 38.622 16.808 38.906 16.384C39.194 15.956 39.338 15.44 39.338 14.836C39.338 14.388 39.258 14.006 39.098 13.69C38.942 13.374 38.726 13.104 38.45 12.88C38.174 12.652 37.854 12.454 37.49 12.286C37.126 12.114 36.74 11.948 36.332 11.788C36.028 11.672 35.738 11.552 35.462 11.428C35.186 11.3 34.96 11.136 34.784 10.936C34.608 10.736 34.52 10.47 34.52 10.138C34.52 9.862 34.588 9.602 34.724 9.358C34.86 9.114 35.056 8.916 35.312 8.764C35.572 8.608 35.888 8.53 36.26 8.53C36.716 8.53 37.124 8.634 37.484 8.842C37.844 9.046 38.122 9.278 38.318 9.538L38.888 8.644C38.728 8.44 38.514 8.246 38.246 8.062C37.978 7.874 37.672 7.72 37.328 7.6C36.988 7.48 36.626 7.42 36.242 7.42C35.67 7.42 35.166 7.546 34.73 7.798C34.294 8.05 33.954 8.384 33.71 8.8C33.466 9.216 33.344 9.668 33.344 10.156C33.344 10.64 33.456 11.042 33.68 11.362C33.908 11.682 34.19 11.942 34.526 12.142C34.866 12.342 35.2 12.508 35.528 12.64C35.996 12.824 36.42 13.006 36.8 13.186C37.18 13.366 37.48 13.586 37.7 13.846C37.924 14.102 38.036 14.442 38.036 14.866C38.036 15.238 37.946 15.55 37.766 15.802C37.59 16.054 37.354 16.244 37.058 16.372C36.762 16.5 36.432 16.564 36.068 16.564C35.684 16.564 35.34 16.504 35.036 16.384C34.732 16.264 34.466 16.116 34.238 15.94C34.01 15.764 33.818 15.588 33.662 15.412C33.506 15.236 33.382 15.092 33.29 14.98L32.624 15.928C32.708 16.04 32.84 16.194 33.02 16.39C33.2 16.582 33.43 16.778 33.71 16.978C33.99 17.178 34.324 17.348 34.712 17.488C35.1 17.624 35.542 17.692 36.038 17.692ZM44.2834 17.692C44.6874 17.692 45.0694 17.632 45.4294 17.512C45.7894 17.392 46.0974 17.234 46.3534 17.038L45.9094 16.252C45.5174 16.564 45.0294 16.72 44.4454 16.72C43.9894 16.72 43.5854 16.62 43.2334 16.42C42.8854 16.216 42.6134 15.942 42.4174 15.598C42.2214 15.25 42.1234 14.86 42.1234 14.428C42.1234 14.008 42.2174 13.624 42.4054 13.276C42.5974 12.928 42.8674 12.652 43.2154 12.448C43.5634 12.24 43.9694 12.136 44.4334 12.136C45.0174 12.136 45.5114 12.292 45.9154 12.604L46.3534 11.818C46.1014 11.618 45.7934 11.46 45.4294 11.344C45.0654 11.224 44.6814 11.164 44.2774 11.164C43.6414 11.164 43.0694 11.31 42.5614 11.602C42.0574 11.894 41.6574 12.286 41.3614 12.778C41.0694 13.27 40.9234 13.82 40.9234 14.428C40.9234 15.048 41.0734 15.604 41.3734 16.096C41.6774 16.588 42.0834 16.978 42.5914 17.266C43.0994 17.55 43.6634 17.692 44.2834 17.692ZM48.1128 17.5H49.2768V13.63C49.2768 13.378 49.3508 13.142 49.4988 12.922C49.6508 12.702 49.8468 12.524 50.0868 12.388C50.3308 12.248 50.5868 12.178 50.8548 12.178C50.9988 12.178 51.1528 12.198 51.3168 12.238C51.4808 12.278 51.6248 12.332 51.7488 12.4L52.2288 11.416C52.0848 11.34 51.9128 11.28 51.7128 11.236C51.5168 11.188 51.3228 11.164 51.1308 11.164C50.3108 11.164 49.6928 11.528 49.2768 12.256V11.356H48.1128V17.5ZM56.5672 17.692C57.2192 17.692 57.8052 17.554 58.3252 17.278C58.8492 17.002 59.2632 16.618 59.5672 16.126C59.8752 15.634 60.0292 15.068 60.0292 14.428C60.0292 13.784 59.8752 13.218 59.5672 12.73C59.2632 12.238 58.8492 11.854 58.3252 11.578C57.8052 11.302 57.2192 11.164 56.5672 11.164C55.9152 11.164 55.3272 11.302 54.8032 11.578C54.2832 11.854 53.8692 12.238 53.5612 12.73C53.2572 13.218 53.1052 13.784 53.1052 14.428C53.1052 15.068 53.2572 15.634 53.5612 16.126C53.8692 16.618 54.2832 17.002 54.8032 17.278C55.3272 17.554 55.9152 17.692 56.5672 17.692ZM56.5672 16.678C56.1392 16.678 55.7552 16.582 55.4152 16.39C55.0752 16.198 54.8072 15.932 54.6112 15.592C54.4152 15.252 54.3172 14.864 54.3172 14.428C54.3172 13.988 54.4152 13.6 54.6112 13.264C54.8072 12.924 55.0752 12.658 55.4152 12.466C55.7552 12.274 56.1392 12.178 56.5672 12.178C56.9992 12.178 57.3852 12.274 57.7252 12.466C58.0652 12.658 58.3332 12.924 58.5292 13.264C58.7252 13.6 58.8232 13.988 58.8232 14.428C58.8232 14.864 58.7252 15.252 58.5292 15.592C58.3332 15.932 58.0652 16.198 57.7252 16.39C57.3852 16.582 56.9992 16.678 56.5672 16.678ZM61.9761 17.5H63.1401V7.18H61.9761V17.5ZM65.5972 17.5H66.7612V7.18H65.5972V17.5Z" fill="#928A97"/>
<path d="M12 22.5C6.47715 22.5 2 18.0228 2 12.5C2 6.97715 6.47715 2.5 12 2.5C17.5228 2.5 22 6.97715 22 12.5C21.9939 18.0203 17.5203 22.4939 12 22.5ZM12 4.5C7.58172 4.5 4 8.08172 4 12.5C4 16.9183 7.58172 20.5 12 20.5C16.4183 20.5 20 16.9183 20 12.5C19.995 8.08378 16.4162 4.50496 12 4.5ZM12 17.5L7 12.5L8.41 11.09L11 13.67V7.5H13V13.67L15.59 11.09L17 12.5L12 17.5Z" fill="#928A97"/>
</svg>
